# xmcd CD database file
# Copyright (C) 1997 Ti Kan
#
# Track frame offsets:
#  150
#  13097
#  27800
#  41670
#  56167
#  70195
#  82610
#  90425
#  100827
#  113192
#  127277
#  144262
#  147077
#  164312
#
# Disc length: 2378 seconds
#
# Revision: 1
# Processed by: cddbd v1.4b41PL1 Copyright (c) Steve Scherf et al.
# Submitted via: CDWizzard Release:4.24
#
DISCID=b409480e
DTITLE=Disciples of Agriculture - Disciples of Agriculture
DYEAR=1900
DGENRE=
TTITLE0=Falling Apart
TTITLE1=Leaving Train
TTITLE2=Drag the River
TTITLE3=By My Side
TTITLE4=Plow
TTITLE5=Seasons
TTITLE6=Hellbinder
TTITLE7=Union Miner
TTITLE8=Cry
TTITLE9=Oregon Pull
TTITLE10=Lee
TTITLE11=Ludd's Revenge
TTITLE12=5 Easy Pieces
TTITLE13=Jefferson
EXTD=
EXTT0=
EXTT1=
EXTT2=
EXTT3=
EXTT4=
EXTT5=
EXTT6=
EXTT7=
EXTT8=
EXTT9=
EXTT10=
EXTT11=
EXTT12=
EXTT13=
PLAYORDER=
